<svg id="visual" viewBox="0 0 1920 1080" width="1920" height="1080" xmlns="http://www.w3.org/2000/svg" xmlns:xlink="http://www.w3.org/1999/xlink" version="1.1"><path d="M0 120L29.2 120C58.3 120 116.7 120 174.8 123.5C233 127 291 134 349.2 132.2C407.3 130.3 465.7 119.7 523.8 116.2C582 112.7 640 116.3 698.2 114.5C756.3 112.7 814.7 105.3 872.8 85.3C931 65.3 989 32.7 1047.2 36.3C1105.3 40 1163.7 80 1221.8 89.2C1280 98.3 1338 76.7 1396.2 82C1454.3 87.3 1512.7 119.7 1570.8 126.8C1629 134 1687 116 1745.2 105.2C1803.3 94.3 1861.7 90.7 1890.8 88.8L1920 87L1920 0L1890.8 0C1861.7 0 1803.3 0 1745.2 0C1687 0 1629 0 1570.8 0C1512.7 0 1454.3 0 1396.2 0C1338 0 1280 0 1221.8 0C1163.7 0 1105.3 0 1047.2 0C989 0 931 0 872.8 0C814.7 0 756.3 0 698.2 0C640 0 582 0 523.8 0C465.7 0 407.3 0 349.2 0C291 0 233 0 174.8 0C116.7 0 58.3 0 29.2 0L0 0Z" fill="#a04741"></path><path d="M0 152L29.2 157.5C58.3 163 116.7 174 174.8 179.5C233 185 291 185 349.2 172.3C407.3 159.7 465.7 134.3 523.8 128.8C582 123.3 640 137.7 698.2 152C756.3 166.3 814.7 180.7 872.8 157.3C931 134 989 73 1047.2 69.5C1105.3 66 1163.7 120 1221.8 136.2C1280 152.3 1338 130.7 1396.2 128.8C1454.3 127 1512.7 145 1570.8 143.2C1629 141.3 1687 119.7 1745.2 119.7C1803.3 119.7 1861.7 141.3 1890.8 152.2L1920 163L1920 85L1890.8 86.8C1861.7 88.7 1803.3 92.3 1745.2 103.2C1687 114 1629 132 1570.8 124.8C1512.7 117.7 1454.3 85.3 1396.2 80C1338 74.7 1280 96.3 1221.8 87.5C1163.7 78.7 1105.3 39.3 1047.2 35.7C989 32 931 64 872.8 83.7C814.7 103.3 756.3 110.7 698.2 112.5C640 114.3 582 110.7 523.8 114.2C465.7 117.7 407.3 128.3 349.2 130.2C291 132 233 125 174.8 121.5C116.7 118 58.3 118 29.2 118L0 118Z" fill="#be5750"></path><path d="M0 282L29.2 280.2C58.3 278.3 116.7 274.7 174.8 274.7C233 274.7 291 278.3 349.2 262.2C407.3 246 465.7 210 523.8 208.2C582 206.3 640 238.7 698.2 253C756.3 267.3 814.7 263.7 872.8 242C931 220.3 989 180.7 1047.2 173.5C1105.3 166.3 1163.7 191.7 1221.8 197.2C1280 202.7 1338 188.3 1396.2 179.3C1454.3 170.3 1512.7 166.7 1570.8 157.7C1629 148.7 1687 134.3 1745.2 139.7C1803.3 145 1861.7 170 1890.8 182.5L1920 195L1920 161L1890.8 150.2C1861.7 139.3 1803.3 117.7 1745.2 117.7C1687 117.7 1629 139.3 1570.8 141.2C1512.7 143 1454.3 125 1396.2 126.8C1338 128.7 1280 150.3 1221.8 134.2C1163.7 118 1105.3 64 1047.2 67.5C989 71 931 132 872.8 155.3C814.7 178.7 756.3 164.3 698.2 150C640 135.7 582 121.3 523.8 126.8C465.7 132.3 407.3 157.7 349.2 170.3C291 183 233 183 174.8 177.5C116.7 172 58.3 161 29.2 155.5L0 150Z" fill="#d96962"></path><path d="M0 552L29.2 517.8C58.3 483.7 116.7 415.3 174.8 409.8C233 404.3 291 461.7 349.2 479.7C407.3 497.7 465.7 476.3 523.8 472.8C582 469.3 640 483.7 698.2 474.7C756.3 465.7 814.7 433.3 872.8 377.5C931 321.7 989 242.3 1047.2 283.7C1105.3 325 1163.7 487 1221.8 546.3C1280 605.7 1338 562.3 1396.2 517.3C1454.3 472.3 1512.7 425.7 1570.8 438.3C1629 451 1687 523 1745.2 501.3C1803.3 479.7 1861.7 364.3 1890.8 306.7L1920 249L1920 193L1890.8 180.5C1861.7 168 1803.3 143 1745.2 137.7C1687 132.3 1629 146.7 1570.8 155.7C1512.7 164.7 1454.3 168.3 1396.2 177.3C1338 186.3 1280 200.7 1221.8 195.2C1163.7 189.7 1105.3 164.3 1047.2 171.5C989 178.7 931 218.3 872.8 240C814.7 261.7 756.3 265.3 698.2 251C640 236.7 582 204.3 523.8 206.2C465.7 208 407.3 244 349.2 260.2C291 276.3 233 272.7 174.8 272.7C116.7 272.7 58.3 276.3 29.2 278.2L0 280Z" fill="#e4847e"></path><path d="M0 584L29.2 546.2C58.3 508.3 116.7 432.7 174.8 439.8C233 447 291 537 349.2 553.3C407.3 569.7 465.7 512.3 523.8 508.8C582 505.3 640 555.7 698.2 557.3C756.3 559 814.7 512 872.8 445.3C931 378.7 989 292.3 1047.2 332C1105.3 371.7 1163.7 537.3 1221.8 605.8C1280 674.3 1338 645.7 1396.2 613.3C1454.3 581 1512.7 545 1570.8 546.7C1629 548.3 1687 587.7 1745.2 549.8C1803.3 512 1861.7 397 1890.8 339.5L1920 282L1920 247L1890.8 304.7C1861.7 362.3 1803.3 477.7 1745.2 499.3C1687 521 1629 449 1570.8 436.3C1512.7 423.7 1454.3 470.3 1396.2 515.3C1338 560.3 1280 603.7 1221.8 544.3C1163.7 485 1105.3 323 1047.2 281.7C989 240.3 931 319.7 872.8 375.5C814.7 431.3 756.3 463.7 698.2 472.7C640 481.7 582 467.3 523.8 470.8C465.7 474.3 407.3 495.7 349.2 477.7C291 459.7 233 402.3 174.8 407.8C116.7 413.3 58.3 481.7 29.2 515.8L0 550Z" fill="#e9948f"></path><path d="M0 735L29.2 677.5C58.3 620 116.7 505 174.8 496C233 487 291 584 349.2 612.8C407.3 641.7 465.7 602.3 523.8 606C582 609.7 640 656.3 698.2 647.3C756.3 638.3 814.7 573.7 872.8 517.8C931 462 989 415 1047.2 472.5C1105.3 530 1163.7 692 1221.8 774.8C1280 857.7 1338 861.3 1396.2 836.2C1454.3 811 1512.7 757 1570.8 731.8C1629 706.7 1687 710.3 1745.2 642C1803.3 573.7 1861.7 433.3 1890.8 363.2L1920 293L1920 280L1890.8 337.5C1861.7 395 1803.3 510 1745.2 547.8C1687 585.7 1629 546.3 1570.8 544.7C1512.7 543 1454.3 579 1396.2 611.3C1338 643.7 1280 672.3 1221.8 603.8C1163.7 535.3 1105.3 369.7 1047.2 330C989 290.3 931 376.7 872.8 443.3C814.7 510 756.3 557 698.2 555.3C640 553.7 582 503.3 523.8 506.8C465.7 510.3 407.3 567.7 349.2 551.3C291 535 233 445 174.8 437.8C116.7 430.7 58.3 506.3 29.2 544.2L0 582Z" fill="#e9948f"></path><path d="M0 822L29.2 768C58.3 714 116.7 606 174.8 586.2C233 566.3 291 634.7 349.2 665.2C407.3 695.7 465.7 688.3 523.8 702.7C582 717 640 753 698.2 729.7C756.3 706.3 814.7 623.7 872.8 553.5C931 483.3 989 425.7 1047.2 492.3C1105.3 559 1163.7 750 1221.8 836.5C1280 923 1338 905 1396.2 878C1454.3 851 1512.7 815 1570.8 797C1629 779 1687 779 1745.2 714.2C1803.3 649.3 1861.7 519.7 1890.8 454.8L1920 390L1920 291L1890.8 361.2C1861.7 431.3 1803.3 571.7 1745.2 640C1687 708.3 1629 704.7 1570.8 729.8C1512.7 755 1454.3 809 1396.2 834.2C1338 859.3 1280 855.7 1221.8 772.8C1163.7 690 1105.3 528 1047.2 470.5C989 413 931 460 872.8 515.8C814.7 571.7 756.3 636.3 698.2 645.3C640 654.3 582 607.7 523.8 604C465.7 600.3 407.3 639.7 349.2 610.8C291 582 233 485 174.8 494C116.7 503 58.3 618 29.2 675.5L0 733Z" fill="#e4847e"></path><path d="M0 876L29.2 825.5C58.3 775 116.7 674 174.8 648.8C233 623.7 291 674.3 349.2 708.7C407.3 743 465.7 761 523.8 780.7C582 800.3 640 821.7 698.2 785.7C756.3 749.7 814.7 656.3 872.8 589.8C931 523.3 989 483.7 1047.2 552C1105.3 620.3 1163.7 796.7 1221.8 883C1280 969.3 1338 965.7 1396.2 949.5C1454.3 933.3 1512.7 904.7 1570.8 892.2C1629 879.7 1687 883.3 1745.2 807.7C1803.3 732 1861.7 577 1890.8 499.5L1920 422L1920 388L1890.8 452.8C1861.7 517.7 1803.3 647.3 1745.2 712.2C1687 777 1629 777 1570.8 795C1512.7 813 1454.3 849 1396.2 876C1338 903 1280 921 1221.8 834.5C1163.7 748 1105.3 557 1047.2 490.3C989 423.7 931 481.3 872.8 551.5C814.7 621.7 756.3 704.3 698.2 727.7C640 751 582 715 523.8 700.7C465.7 686.3 407.3 693.7 349.2 663.2C291 632.7 233 564.3 174.8 584.2C116.7 604 58.3 712 29.2 766L0 820Z" fill="#d96962"></path><path d="M0 984L29.2 984C58.3 984 116.7 984 174.8 993C233 1002 291 1020 349.2 1003.8C407.3 987.7 465.7 937.3 523.8 921.2C582 905 640 923 698.2 923C756.3 923 814.7 905 872.8 921.2C931 937.3 989 987.7 1047.2 1011C1105.3 1034.3 1163.7 1030.7 1221.8 1027C1280 1023.3 1338 1019.7 1396.2 1010.7C1454.3 1001.7 1512.7 987.3 1570.8 991C1629 994.7 1687 1016.3 1745.2 1020C1803.3 1023.7 1861.7 1009.3 1890.8 1002.2L1920 995L1920 420L1890.8 497.5C1861.7 575 1803.3 730 1745.2 805.7C1687 881.3 1629 877.7 1570.8 890.2C1512.7 902.7 1454.3 931.3 1396.2 947.5C1338 963.7 1280 967.3 1221.8 881C1163.7 794.7 1105.3 618.3 1047.2 550C989 481.7 931 521.3 872.8 587.8C814.7 654.3 756.3 747.7 698.2 783.7C640 819.7 582 798.3 523.8 778.7C465.7 759 407.3 741 349.2 706.7C291 672.3 233 621.7 174.8 646.8C116.7 672 58.3 773 29.2 823.5L0 874Z" fill="#be5750"></path><path d="M0 1081L29.2 1081C58.3 1081 116.7 1081 174.8 1081C233 1081 291 1081 349.2 1081C407.3 1081 465.7 1081 523.8 1081C582 1081 640 1081 698.2 1081C756.3 1081 814.7 1081 872.8 1081C931 1081 989 1081 1047.2 1081C1105.3 1081 1163.7 1081 1221.8 1081C1280 1081 1338 1081 1396.2 1081C1454.3 1081 1512.7 1081 1570.8 1081C1629 1081 1687 1081 1745.2 1081C1803.3 1081 1861.7 1081 1890.8 1081L1920 1081L1920 993L1890.8 1000.2C1861.7 1007.3 1803.3 1021.7 1745.2 1018C1687 1014.3 1629 992.7 1570.8 989C1512.7 985.3 1454.3 999.7 1396.2 1008.7C1338 1017.7 1280 1021.3 1221.8 1025C1163.7 1028.7 1105.3 1032.3 1047.2 1009C989 985.7 931 935.3 872.8 919.2C814.7 903 756.3 921 698.2 921C640 921 582 903 523.8 919.2C465.7 935.3 407.3 985.7 349.2 1001.8C291 1018 233 1000 174.8 991C116.7 982 58.3 982 29.2 982L0 982Z" fill="#a04741"></path></svg>